<svg width="818" height="515" viewBox="0 0 818 515" fill="none" xmlns="http://www.w3.org/2000/svg">
<g id="item">
<g id="borda">
<path id="Vector1" d="M23 404V18H794V404H23Z" fill="#A8EB12" fill-opacity="0.1" stroke="#A8EB12" stroke-width="2"/>
<rect id="Rectangle1" x="16" y="11" width="13" height="13" fill="white" stroke="#A8EB12" stroke-width="2"/>
<rect id="Rectangle2" x="16" y="398" width="13" height="13" fill="white" stroke="#A8EB12" stroke-width="2"/>
<rect id="Rectangle3" x="787" y="11" width="14" height="13" fill="white" stroke="#A8EB12" stroke-width="2"/>
<rect id="Rectangle4" x="787" y="398" width="14" height="13" fill="white" stroke="#A8EB12" stroke-width="2"/>
<path id="text" d="M215.103 188V132.56H252.223V143.04H227.583V154.64H249.503V165.12H227.583V188H215.103ZM284.038 156.48C282.971 156.213 281.718 155.947 280.278 155.68C278.838 155.36 277.291 155.2 275.638 155.2C274.891 155.2 273.985 155.28 272.918 155.44C271.905 155.547 271.131 155.68 270.598 155.84V188H258.678V148.16C260.811 147.413 263.318 146.72 266.198 146.08C269.131 145.387 272.385 145.04 275.958 145.04C276.598 145.04 277.371 145.093 278.278 145.2C279.185 145.253 280.091 145.36 280.998 145.52C281.905 145.627 282.811 145.787 283.718 146C284.625 146.16 285.398 146.373 286.038 146.64L284.038 156.48ZM331.007 166.88C331.007 170.187 330.527 173.227 329.567 176C328.607 178.72 327.22 181.067 325.407 183.04C323.594 184.96 321.407 186.453 318.847 187.52C316.34 188.587 313.514 189.12 310.367 189.12C307.274 189.12 304.447 188.587 301.887 187.52C299.38 186.453 297.22 184.96 295.407 183.04C293.594 181.067 292.18 178.72 291.167 176C290.154 173.227 289.647 170.187 289.647 166.88C289.647 163.573 290.154 160.56 291.167 157.84C292.234 155.12 293.674 152.8 295.487 150.88C297.354 148.96 299.54 147.467 302.047 146.4C304.607 145.333 307.38 144.8 310.367 144.8C313.407 144.8 316.18 145.333 318.687 146.4C321.247 147.467 323.434 148.96 325.247 150.88C327.06 152.8 328.474 155.12 329.487 157.84C330.5 160.56 331.007 163.573 331.007 166.88ZM318.847 166.88C318.847 163.2 318.1 160.32 316.607 158.24C315.167 156.107 313.087 155.04 310.367 155.04C307.647 155.04 305.54 156.107 304.047 158.24C302.554 160.32 301.807 163.2 301.807 166.88C301.807 170.56 302.554 173.493 304.047 175.68C305.54 177.813 307.647 178.88 310.367 178.88C313.087 178.88 315.167 177.813 316.607 175.68C318.1 173.493 318.847 170.56 318.847 166.88ZM340.241 147.36C342.267 146.773 344.881 146.24 348.081 145.76C351.281 145.227 354.641 144.96 358.161 144.96C361.734 144.96 364.694 145.44 367.041 146.4C369.441 147.307 371.334 148.613 372.721 150.32C374.107 152.027 375.094 154.053 375.681 156.4C376.267 158.747 376.561 161.36 376.561 164.24V188H364.641V165.68C364.641 161.84 364.134 159.12 363.121 157.52C362.107 155.92 360.214 155.12 357.441 155.12C356.587 155.12 355.681 155.173 354.721 155.28C353.761 155.333 352.907 155.413 352.161 155.52V188H340.241V147.36ZM386.95 135.44L398.87 133.52V145.92H413.19V155.84H398.87V170.64C398.87 173.147 399.297 175.147 400.15 176.64C401.057 178.133 402.843 178.88 405.51 178.88C406.79 178.88 408.097 178.773 409.43 178.56C410.817 178.293 412.07 177.947 413.19 177.52L414.87 186.8C413.43 187.387 411.83 187.893 410.07 188.32C408.31 188.747 406.15 188.96 403.59 188.96C400.337 188.96 397.643 188.533 395.51 187.68C393.377 186.773 391.67 185.547 390.39 184C389.11 182.4 388.203 180.48 387.67 178.24C387.19 176 386.95 173.52 386.95 170.8V135.44ZM418.516 158.72H441.716V169.52H418.516V158.72ZM450.103 188V132.56H487.543V143.04H462.583V153.92H484.743V164.16H462.583V177.52H489.383V188H450.103ZM497.819 147.36C499.845 146.773 502.459 146.24 505.659 145.76C508.859 145.227 512.219 144.96 515.739 144.96C519.312 144.96 522.272 145.44 524.619 146.4C527.019 147.307 528.912 148.613 530.299 150.32C531.685 152.027 532.672 154.053 533.259 156.4C533.845 158.747 534.139 161.36 534.139 164.24V188H522.219V165.68C522.219 161.84 521.712 159.12 520.699 157.52C519.685 155.92 517.792 155.12 515.019 155.12C514.165 155.12 513.259 155.173 512.299 155.28C511.339 155.333 510.485 155.413 509.739 155.52V188H497.819V147.36ZM555.088 166.64C555.088 170.32 555.915 173.28 557.568 175.52C559.221 177.76 561.675 178.88 564.928 178.88C565.995 178.88 566.981 178.853 567.888 178.8C568.795 178.693 569.541 178.587 570.128 178.48V156.8C569.381 156.32 568.395 155.92 567.168 155.6C565.995 155.28 564.795 155.12 563.568 155.12C557.915 155.12 555.088 158.96 555.088 166.64ZM582.048 186.64C580.981 186.96 579.755 187.28 578.368 187.6C576.981 187.867 575.515 188.107 573.968 188.32C572.475 188.533 570.928 188.693 569.328 188.8C567.781 188.96 566.288 189.04 564.848 189.04C561.381 189.04 558.288 188.533 555.568 187.52C552.848 186.507 550.555 185.067 548.688 183.2C546.821 181.28 545.381 178.987 544.368 176.32C543.408 173.6 542.928 170.56 542.928 167.2C542.928 163.787 543.355 160.72 544.208 158C545.061 155.227 546.288 152.88 547.888 150.96C549.488 149.04 551.435 147.573 553.728 146.56C556.075 145.547 558.741 145.04 561.728 145.04C563.381 145.04 564.848 145.2 566.128 145.52C567.461 145.84 568.795 146.293 570.128 146.88V127.84L582.048 125.92V186.64ZM604.489 175.84C604.596 177.12 604.649 178.027 604.649 178.56C604.703 179.093 604.729 179.547 604.729 179.92C604.729 181.52 604.569 183.227 604.249 185.04C603.983 186.8 603.583 188.587 603.049 190.4C602.516 192.213 601.849 194.027 601.049 195.84C600.249 197.653 599.343 199.387 598.329 201.04L588.969 198.72C590.196 195.2 591.049 191.893 591.529 188.8C592.009 185.707 592.249 183.147 592.249 181.12C592.249 180.8 592.223 180.4 592.169 179.92C592.169 179.387 592.143 178.853 592.089 178.32C592.089 177.787 592.063 177.28 592.009 176.8C592.009 176.32 592.009 176 592.009 175.84H604.489ZM137.167 231.56C138.127 233.32 139.22 235.507 140.447 238.12C141.727 240.68 143.034 243.48 144.367 246.52C145.754 249.507 147.114 252.573 148.447 255.72C149.78 258.867 151.034 261.827 152.207 264.6C153.38 261.827 154.634 258.867 155.967 255.72C157.3 252.573 158.634 249.507 159.967 246.52C161.354 243.48 162.66 240.68 163.887 238.12C165.167 235.507 166.287 233.32 167.247 231.56H178.607C179.14 235.24 179.62 239.373 180.047 243.96C180.527 248.493 180.927 253.24 181.247 258.2C181.62 263.107 181.94 268.04 182.207 273C182.527 277.96 182.794 282.627 183.007 287H170.847C170.687 281.613 170.474 275.747 170.207 269.4C169.94 263.053 169.54 256.653 169.007 250.2C168.047 252.44 166.98 254.92 165.807 257.64C164.634 260.36 163.46 263.08 162.287 265.8C161.167 268.52 160.074 271.133 159.007 273.64C157.94 276.093 157.034 278.2 156.287 279.96H147.567C146.82 278.2 145.914 276.093 144.847 273.64C143.78 271.133 142.66 268.52 141.487 265.8C140.367 263.08 139.22 260.36 138.047 257.64C136.874 254.92 135.807 252.44 134.847 250.2C134.314 256.653 133.914 263.053 133.647 269.4C133.38 275.747 133.167 281.613 133.007 287H120.847C121.06 282.627 121.3 277.96 121.567 273C121.887 268.04 122.207 263.107 122.527 258.2C122.9 253.24 123.3 248.493 123.727 243.96C124.207 239.373 124.714 235.24 125.247 231.56H137.167ZM232.804 265.88C232.804 269.187 232.324 272.227 231.364 275C230.404 277.72 229.017 280.067 227.204 282.04C225.39 283.96 223.204 285.453 220.644 286.52C218.137 287.587 215.31 288.12 212.164 288.12C209.07 288.12 206.244 287.587 203.684 286.52C201.177 285.453 199.017 283.96 197.204 282.04C195.39 280.067 193.977 277.72 192.964 275C191.95 272.227 191.444 269.187 191.444 265.88C191.444 262.573 191.95 259.56 192.964 256.84C194.03 254.12 195.47 251.8 197.284 249.88C199.15 247.96 201.337 246.467 203.844 245.4C206.404 244.333 209.177 243.8 212.164 243.8C215.204 243.8 217.977 244.333 220.484 245.4C223.044 246.467 225.23 247.96 227.044 249.88C228.857 251.8 230.27 254.12 231.284 256.84C232.297 259.56 232.804 262.573 232.804 265.88ZM220.644 265.88C220.644 262.2 219.897 259.32 218.404 257.24C216.964 255.107 214.884 254.04 212.164 254.04C209.444 254.04 207.337 255.107 205.844 257.24C204.35 259.32 203.604 262.2 203.604 265.88C203.604 269.56 204.35 272.493 205.844 274.68C207.337 276.813 209.444 277.88 212.164 277.88C214.884 277.88 216.964 276.813 218.404 274.68C219.897 272.493 220.644 269.56 220.644 265.88ZM241.638 234.44L253.558 232.52V244.92H267.878V254.84H253.558V269.64C253.558 272.147 253.984 274.147 254.838 275.64C255.744 277.133 257.531 277.88 260.198 277.88C261.478 277.88 262.784 277.773 264.118 277.56C265.504 277.293 266.758 276.947 267.878 276.52L269.558 285.8C268.118 286.387 266.518 286.893 264.758 287.32C262.998 287.747 260.838 287.96 258.278 287.96C255.024 287.96 252.331 287.533 250.198 286.68C248.064 285.773 246.358 284.547 245.078 283C243.798 281.4 242.891 279.48 242.358 277.24C241.878 275 241.638 272.52 241.638 269.8V234.44ZM289.504 287H277.584V244.92H289.504V287ZM290.624 232.76C290.624 234.947 289.904 236.68 288.464 237.96C287.078 239.187 285.424 239.8 283.504 239.8C281.584 239.8 279.904 239.187 278.464 237.96C277.078 236.68 276.384 234.947 276.384 232.76C276.384 230.573 277.078 228.867 278.464 227.64C279.904 226.36 281.584 225.72 283.504 225.72C285.424 225.72 287.078 226.36 288.464 227.64C289.904 228.867 290.624 230.573 290.624 232.76ZM340.069 265.88C340.069 269.187 339.589 272.227 338.629 275C337.669 277.72 336.283 280.067 334.469 282.04C332.656 283.96 330.469 285.453 327.909 286.52C325.403 287.587 322.576 288.12 319.429 288.12C316.336 288.12 313.509 287.587 310.949 286.52C308.443 285.453 306.283 283.96 304.469 282.04C302.656 280.067 301.243 277.72 300.229 275C299.216 272.227 298.709 269.187 298.709 265.88C298.709 262.573 299.216 259.56 300.229 256.84C301.296 254.12 302.736 251.8 304.549 249.88C306.416 247.96 308.603 246.467 311.109 245.4C313.669 244.333 316.443 243.8 319.429 243.8C322.469 243.8 325.243 244.333 327.749 245.4C330.309 246.467 332.496 247.96 334.309 249.88C336.123 251.8 337.536 254.12 338.549 256.84C339.563 259.56 340.069 262.573 340.069 265.88ZM327.909 265.88C327.909 262.2 327.163 259.32 325.669 257.24C324.229 255.107 322.149 254.04 319.429 254.04C316.709 254.04 314.603 255.107 313.109 257.24C311.616 259.32 310.869 262.2 310.869 265.88C310.869 269.56 311.616 272.493 313.109 274.68C314.603 276.813 316.709 277.88 319.429 277.88C322.149 277.88 324.229 276.813 325.669 274.68C327.163 272.493 327.909 269.56 327.909 265.88ZM349.303 246.36C351.33 245.773 353.943 245.24 357.143 244.76C360.343 244.227 363.703 243.96 367.223 243.96C370.796 243.96 373.756 244.44 376.103 245.4C378.503 246.307 380.396 247.613 381.783 249.32C383.17 251.027 384.156 253.053 384.743 255.4C385.33 257.747 385.623 260.36 385.623 263.24V287H373.703V264.68C373.703 260.84 373.196 258.12 372.183 256.52C371.17 254.92 369.276 254.12 366.503 254.12C365.65 254.12 364.743 254.173 363.783 254.28C362.823 254.333 361.97 254.413 361.223 254.52V287H349.303V246.36ZM392.813 257.72H416.013V268.52H392.813V257.72ZM436.88 276.84C437.467 276.893 438.133 276.947 438.88 277C439.68 277 440.613 277 441.68 277C447.92 277 452.533 275.427 455.52 272.28C458.56 269.133 460.08 264.787 460.08 259.24C460.08 253.427 458.64 249.027 455.76 246.04C452.88 243.053 448.32 241.56 442.08 241.56C441.227 241.56 440.347 241.587 439.44 241.64C438.533 241.64 437.68 241.693 436.88 241.8V276.84ZM472.96 259.24C472.96 264.04 472.213 268.227 470.72 271.8C469.227 275.373 467.093 278.333 464.32 280.68C461.6 283.027 458.267 284.787 454.32 285.96C450.373 287.133 445.947 287.72 441.04 287.72C438.8 287.72 436.187 287.613 433.2 287.4C430.213 287.24 427.28 286.867 424.4 286.28V232.28C427.28 231.747 430.267 231.4 433.36 231.24C436.507 231.027 439.2 230.92 441.44 230.92C446.187 230.92 450.48 231.453 454.32 232.52C458.213 233.587 461.547 235.267 464.32 237.56C467.093 239.853 469.227 242.787 470.72 246.36C472.213 249.933 472.96 254.227 472.96 259.24ZM480.584 266.28C480.584 262.547 481.144 259.293 482.264 256.52C483.438 253.693 484.958 251.347 486.824 249.48C488.691 247.613 490.824 246.2 493.224 245.24C495.678 244.28 498.184 243.8 500.744 243.8C506.718 243.8 511.438 245.64 514.904 249.32C518.371 252.947 520.104 258.307 520.104 265.4C520.104 266.093 520.078 266.867 520.024 267.72C519.971 268.52 519.918 269.24 519.864 269.88H492.824C493.091 272.333 494.238 274.28 496.264 275.72C498.291 277.16 501.011 277.88 504.424 277.88C506.611 277.88 508.744 277.693 510.824 277.32C512.958 276.893 514.691 276.387 516.024 275.8L517.624 285.48C516.984 285.8 516.131 286.12 515.064 286.44C513.998 286.76 512.798 287.027 511.464 287.24C510.184 287.507 508.798 287.72 507.304 287.88C505.811 288.04 504.318 288.12 502.824 288.12C499.038 288.12 495.731 287.56 492.904 286.44C490.131 285.32 487.811 283.8 485.944 281.88C484.131 279.907 482.771 277.587 481.864 274.92C481.011 272.253 480.584 269.373 480.584 266.28ZM508.584 261.72C508.531 260.707 508.344 259.72 508.024 258.76C507.758 257.8 507.304 256.947 506.664 256.2C506.078 255.453 505.304 254.84 504.344 254.36C503.438 253.88 502.291 253.64 500.904 253.64C499.571 253.64 498.424 253.88 497.464 254.36C496.504 254.787 495.704 255.373 495.064 256.12C494.424 256.867 493.918 257.747 493.544 258.76C493.224 259.72 492.984 260.707 492.824 261.72H508.584ZM541.383 278.44C543.57 278.44 545.116 278.227 546.023 277.8C546.93 277.373 547.383 276.547 547.383 275.32C547.383 274.36 546.796 273.533 545.623 272.84C544.45 272.093 542.663 271.267 540.263 270.36C538.396 269.667 536.69 268.947 535.143 268.2C533.65 267.453 532.37 266.573 531.303 265.56C530.236 264.493 529.41 263.24 528.823 261.8C528.236 260.36 527.943 258.627 527.943 256.6C527.943 252.653 529.41 249.533 532.343 247.24C535.276 244.947 539.303 243.8 544.423 243.8C546.983 243.8 549.436 244.04 551.783 244.52C554.13 244.947 555.996 245.427 557.383 245.96L555.303 255.24C553.916 254.76 552.396 254.333 550.743 253.96C549.143 253.587 547.33 253.4 545.303 253.4C541.57 253.4 539.703 254.44 539.703 256.52C539.703 257 539.783 257.427 539.943 257.8C540.103 258.173 540.423 258.547 540.903 258.92C541.383 259.24 542.023 259.613 542.823 260.04C543.676 260.413 544.743 260.84 546.023 261.32C548.636 262.28 550.796 263.24 552.503 264.2C554.21 265.107 555.543 266.12 556.503 267.24C557.516 268.307 558.21 269.507 558.583 270.84C559.01 272.173 559.223 273.72 559.223 275.48C559.223 279.64 557.65 282.787 554.503 284.92C551.41 287.053 547.01 288.12 541.303 288.12C537.57 288.12 534.45 287.8 531.943 287.16C529.49 286.52 527.783 285.987 526.823 285.56L528.823 275.88C530.85 276.68 532.93 277.32 535.063 277.8C537.196 278.227 539.303 278.44 541.383 278.44ZM580.051 287H568.131V244.92H580.051V287ZM581.171 232.76C581.171 234.947 580.451 236.68 579.011 237.96C577.625 239.187 575.971 239.8 574.051 239.8C572.131 239.8 570.451 239.187 569.011 237.96C567.625 236.68 566.931 234.947 566.931 232.76C566.931 230.573 567.625 228.867 569.011 227.64C570.451 226.36 572.131 225.72 574.051 225.72C575.971 225.72 577.625 226.36 579.011 227.64C580.451 228.867 581.171 230.573 581.171 232.76ZM601.416 264.6C601.416 271.267 604.11 274.6 609.496 274.6C610.723 274.6 611.87 274.44 612.936 274.12C614.003 273.8 614.91 273.427 615.656 273V253.96C615.07 253.853 614.376 253.773 613.576 253.72C612.776 253.613 611.843 253.56 610.776 253.56C607.63 253.56 605.283 254.6 603.736 256.68C602.19 258.76 601.416 261.4 601.416 264.6ZM627.576 281.72C627.576 288.6 625.816 293.693 622.296 297C618.83 300.36 613.443 302.04 606.136 302.04C603.576 302.04 601.016 301.8 598.456 301.32C595.896 300.893 593.523 300.307 591.336 299.56L593.416 289.56C595.283 290.307 597.23 290.893 599.256 291.32C601.336 291.747 603.683 291.96 606.296 291.96C609.71 291.96 612.11 291.213 613.496 289.72C614.936 288.227 615.656 286.307 615.656 283.96V282.44C614.376 283.027 613.043 283.48 611.656 283.8C610.323 284.067 608.856 284.2 607.256 284.2C601.443 284.2 596.99 282.493 593.896 279.08C590.803 275.613 589.256 270.787 589.256 264.6C589.256 261.507 589.736 258.707 590.696 256.2C591.656 253.64 593.043 251.453 594.856 249.64C596.723 247.827 598.99 246.44 601.656 245.48C604.323 244.467 607.336 243.96 610.696 243.96C612.136 243.96 613.603 244.04 615.096 244.2C616.643 244.307 618.163 244.467 619.656 244.68C621.15 244.893 622.563 245.16 623.896 245.48C625.283 245.747 626.51 246.04 627.576 246.36V281.72ZM638.756 246.36C640.783 245.773 643.396 245.24 646.596 244.76C649.796 244.227 653.156 243.96 656.676 243.96C660.25 243.96 663.21 244.44 665.556 245.4C667.956 246.307 669.85 247.613 671.236 249.32C672.623 251.027 673.61 253.053 674.196 255.4C674.783 257.747 675.076 260.36 675.076 263.24V287H663.156V264.68C663.156 260.84 662.65 258.12 661.636 256.52C660.623 254.92 658.73 254.12 655.956 254.12C655.103 254.12 654.196 254.173 653.236 254.28C652.276 254.333 651.423 254.413 650.676 254.52V287H638.756V246.36ZM697.546 280.68C697.546 283.08 696.772 284.92 695.226 286.2C693.732 287.427 692.026 288.04 690.106 288.04C688.186 288.04 686.452 287.427 684.906 286.2C683.412 284.92 682.666 283.08 682.666 280.68C682.666 278.28 683.412 276.467 684.906 275.24C686.452 273.96 688.186 273.32 690.106 273.32C692.026 273.32 693.732 273.96 695.226 275.24C696.772 276.467 697.546 278.28 697.546 280.68Z" fill="white"/>
</g>
<g id="mouse">
<path id="Vector 2" d="M571 423.117V443.227C571 446.578 574.429 443.785 575.001 443.227C575.001 443.227 578.43 439.317 579.001 438.758C579.573 438.199 580.144 438.199 580.716 438.199H588.717C589.86 438.199 591.003 437.082 589.86 435.965L573.286 422.559C572.715 422 571 421.441 571 423.117Z" fill="#A8EB12" stroke="white"/>
<rect id="Rectangle 5" x="583" y="445" width="166" height="33" rx="14" fill="#A8EB12"/>
<path id="name" d="M614.881 462.18H616.821V468.66C616.661 468.713 616.428 468.773 616.121 468.84C615.828 468.907 615.481 468.973 615.081 469.04C614.694 469.107 614.268 469.16 613.801 469.2C613.334 469.253 612.861 469.28 612.381 469.28C611.408 469.28 610.521 469.12 609.721 468.8C608.921 468.48 608.234 468.013 607.661 467.4C607.088 466.787 606.641 466.033 606.321 465.14C606.014 464.247 605.861 463.22 605.861 462.06C605.861 460.9 606.034 459.873 606.381 458.98C606.741 458.073 607.221 457.313 607.821 456.7C608.421 456.087 609.121 455.62 609.921 455.3C610.734 454.98 611.601 454.82 612.521 454.82C613.148 454.82 613.701 454.86 614.181 454.94C614.674 455.02 615.094 455.113 615.441 455.22C615.788 455.327 616.068 455.433 616.281 455.54C616.508 455.647 616.661 455.727 616.741 455.78L616.121 457.4C615.734 457.147 615.221 456.94 614.581 456.78C613.941 456.607 613.288 456.52 612.621 456.52C611.914 456.52 611.268 456.647 610.681 456.9C610.108 457.153 609.614 457.52 609.201 458C608.801 458.48 608.488 459.067 608.261 459.76C608.034 460.44 607.921 461.207 607.921 462.06C607.921 462.887 608.014 463.64 608.201 464.32C608.401 465 608.694 465.587 609.081 466.08C609.481 466.56 609.968 466.933 610.541 467.2C611.128 467.467 611.814 467.6 612.601 467.6C613.161 467.6 613.634 467.573 614.021 467.52C614.421 467.453 614.708 467.393 614.881 467.34V462.18ZM628.018 468.7C627.592 468.807 627.025 468.92 626.318 469.04C625.625 469.16 624.818 469.22 623.898 469.22C623.098 469.22 622.425 469.107 621.878 468.88C621.332 468.64 620.892 468.307 620.558 467.88C620.225 467.453 619.985 466.953 619.838 466.38C619.692 465.793 619.618 465.147 619.618 464.44V458.6H621.478V464.04C621.478 465.307 621.678 466.213 622.078 466.76C622.478 467.307 623.152 467.58 624.098 467.58C624.298 467.58 624.505 467.573 624.718 467.56C624.932 467.547 625.132 467.533 625.318 467.52C625.505 467.493 625.672 467.473 625.818 467.46C625.978 467.433 626.092 467.407 626.158 467.38V458.6H628.018V468.7ZM633.643 467.66C634.403 467.66 634.963 467.56 635.323 467.36C635.696 467.16 635.883 466.84 635.883 466.4C635.883 465.947 635.703 465.587 635.343 465.32C634.983 465.053 634.389 464.753 633.563 464.42C633.163 464.26 632.776 464.1 632.403 463.94C632.043 463.767 631.729 463.567 631.463 463.34C631.196 463.113 630.983 462.84 630.823 462.52C630.663 462.2 630.583 461.807 630.583 461.34C630.583 460.42 630.923 459.693 631.603 459.16C632.283 458.613 633.209 458.34 634.383 458.34C634.676 458.34 634.969 458.36 635.263 458.4C635.556 458.427 635.829 458.467 636.083 458.52C636.336 458.56 636.556 458.607 636.743 458.66C636.943 458.713 637.096 458.76 637.203 458.8L636.863 460.4C636.663 460.293 636.349 460.187 635.923 460.08C635.496 459.96 634.983 459.9 634.383 459.9C633.863 459.9 633.409 460.007 633.023 460.22C632.636 460.42 632.443 460.74 632.443 461.18C632.443 461.407 632.483 461.607 632.563 461.78C632.656 461.953 632.789 462.113 632.963 462.26C633.149 462.393 633.376 462.52 633.643 462.64C633.909 462.76 634.229 462.887 634.603 463.02C635.096 463.207 635.536 463.393 635.923 463.58C636.309 463.753 636.636 463.96 636.903 464.2C637.183 464.44 637.396 464.733 637.543 465.08C637.689 465.413 637.763 465.827 637.763 466.32C637.763 467.28 637.403 468.007 636.683 468.5C635.976 468.993 634.963 469.24 633.643 469.24C632.723 469.24 632.003 469.16 631.483 469C630.963 468.853 630.609 468.74 630.423 468.66L630.763 467.06C630.976 467.14 631.316 467.26 631.783 467.42C632.249 467.58 632.869 467.66 633.643 467.66ZM641.889 458.6H645.829V460.16H641.889V464.96C641.889 465.48 641.929 465.913 642.009 466.26C642.089 466.593 642.209 466.86 642.369 467.06C642.529 467.247 642.729 467.38 642.969 467.46C643.209 467.54 643.489 467.58 643.809 467.58C644.369 467.58 644.815 467.52 645.149 467.4C645.495 467.267 645.735 467.173 645.869 467.12L646.229 468.66C646.042 468.753 645.715 468.867 645.249 469C644.782 469.147 644.249 469.22 643.649 469.22C642.942 469.22 642.355 469.133 641.889 468.96C641.435 468.773 641.069 468.5 640.789 468.14C640.509 467.78 640.309 467.34 640.189 466.82C640.082 466.287 640.029 465.673 640.029 464.98V455.7L641.889 455.38V458.6ZM651.715 467.66C652.155 467.66 652.542 467.653 652.875 467.64C653.222 467.613 653.509 467.573 653.735 467.52V464.42C653.602 464.353 653.382 464.3 653.075 464.26C652.782 464.207 652.422 464.18 651.995 464.18C651.715 464.18 651.415 464.2 651.095 464.24C650.789 464.28 650.502 464.367 650.235 464.5C649.982 464.62 649.769 464.793 649.595 465.02C649.422 465.233 649.335 465.52 649.335 465.88C649.335 466.547 649.549 467.013 649.975 467.28C650.402 467.533 650.982 467.66 651.715 467.66ZM651.555 458.34C652.302 458.34 652.929 458.44 653.435 458.64C653.955 458.827 654.369 459.1 654.675 459.46C654.995 459.807 655.222 460.227 655.355 460.72C655.489 461.2 655.555 461.733 655.555 462.32V468.82C655.395 468.847 655.169 468.887 654.875 468.94C654.595 468.98 654.275 469.02 653.915 469.06C653.555 469.1 653.162 469.133 652.735 469.16C652.322 469.2 651.909 469.22 651.495 469.22C650.909 469.22 650.369 469.16 649.875 469.04C649.382 468.92 648.955 468.733 648.595 468.48C648.235 468.213 647.955 467.867 647.755 467.44C647.555 467.013 647.455 466.5 647.455 465.9C647.455 465.327 647.569 464.833 647.795 464.42C648.035 464.007 648.355 463.673 648.755 463.42C649.155 463.167 649.622 462.98 650.155 462.86C650.689 462.74 651.249 462.68 651.835 462.68C652.022 462.68 652.215 462.693 652.415 462.72C652.615 462.733 652.802 462.76 652.975 462.8C653.162 462.827 653.322 462.853 653.455 462.88C653.589 462.907 653.682 462.927 653.735 462.94V462.42C653.735 462.113 653.702 461.813 653.635 461.52C653.569 461.213 653.449 460.947 653.275 460.72C653.102 460.48 652.862 460.293 652.555 460.16C652.262 460.013 651.875 459.94 651.395 459.94C650.782 459.94 650.242 459.987 649.775 460.08C649.322 460.16 648.982 460.247 648.755 460.34L648.535 458.8C648.775 458.693 649.175 458.593 649.735 458.5C650.295 458.393 650.902 458.34 651.555 458.34ZM666.472 458.6C665.952 460.547 665.338 462.413 664.632 464.2C663.938 465.987 663.265 467.587 662.612 469H660.932C660.278 467.587 659.598 465.987 658.892 464.2C658.198 462.413 657.592 460.547 657.072 458.6H659.072C659.232 459.253 659.418 459.953 659.632 460.7C659.858 461.433 660.092 462.167 660.332 462.9C660.585 463.62 660.838 464.32 661.092 465C661.345 465.68 661.585 466.287 661.812 466.82C662.038 466.287 662.278 465.68 662.532 465C662.785 464.32 663.032 463.62 663.272 462.9C663.525 462.167 663.758 461.433 663.972 460.7C664.198 459.953 664.392 459.253 664.552 458.6H666.472ZM677.297 463.8C677.297 464.627 677.177 465.373 676.937 466.04C676.697 466.707 676.357 467.28 675.917 467.76C675.491 468.24 674.977 468.613 674.377 468.88C673.777 469.133 673.124 469.26 672.417 469.26C671.711 469.26 671.057 469.133 670.457 468.88C669.857 468.613 669.337 468.24 668.897 467.76C668.471 467.28 668.137 466.707 667.897 466.04C667.657 465.373 667.537 464.627 667.537 463.8C667.537 462.987 667.657 462.247 667.897 461.58C668.137 460.9 668.471 460.32 668.897 459.84C669.337 459.36 669.857 458.993 670.457 458.74C671.057 458.473 671.711 458.34 672.417 458.34C673.124 458.34 673.777 458.473 674.377 458.74C674.977 458.993 675.491 459.36 675.917 459.84C676.357 460.32 676.697 460.9 676.937 461.58C677.177 462.247 677.297 462.987 677.297 463.8ZM675.357 463.8C675.357 462.627 675.091 461.7 674.557 461.02C674.037 460.327 673.324 459.98 672.417 459.98C671.511 459.98 670.791 460.327 670.257 461.02C669.737 461.7 669.477 462.627 669.477 463.8C669.477 464.973 669.737 465.907 670.257 466.6C670.791 467.28 671.511 467.62 672.417 467.62C673.324 467.62 674.037 467.28 674.557 466.6C675.091 465.907 675.357 464.973 675.357 463.8ZM691.443 463.2C691.656 463.467 691.923 463.82 692.243 464.26C692.576 464.687 692.916 465.167 693.263 465.7C693.61 466.22 693.95 466.767 694.283 467.34C694.63 467.913 694.923 468.467 695.163 469H693.043C692.776 468.493 692.483 467.98 692.163 467.46C691.856 466.94 691.543 466.447 691.223 465.98C690.903 465.5 690.583 465.053 690.263 464.64C689.956 464.227 689.676 463.867 689.423 463.56C689.25 463.573 689.07 463.58 688.883 463.58C688.71 463.58 688.53 463.58 688.343 463.58H686.603V469H684.663V455.34C685.21 455.207 685.816 455.12 686.483 455.08C687.163 455.027 687.783 455 688.343 455C690.29 455 691.77 455.367 692.783 456.1C693.81 456.833 694.323 457.927 694.323 459.38C694.323 460.3 694.076 461.087 693.583 461.74C693.103 462.393 692.39 462.88 691.443 463.2ZM688.503 456.7C687.676 456.7 687.043 456.72 686.603 456.76V461.98H687.983C688.65 461.98 689.25 461.947 689.783 461.88C690.316 461.813 690.763 461.687 691.123 461.5C691.496 461.313 691.783 461.053 691.983 460.72C692.183 460.373 692.283 459.92 692.283 459.36C692.283 458.84 692.183 458.407 691.983 458.06C691.783 457.713 691.51 457.44 691.163 457.24C690.83 457.04 690.43 456.9 689.963 456.82C689.51 456.74 689.023 456.7 688.503 456.7ZM706.301 463.8C706.301 464.627 706.181 465.373 705.941 466.04C705.701 466.707 705.361 467.28 704.921 467.76C704.495 468.24 703.981 468.613 703.381 468.88C702.781 469.133 702.128 469.26 701.421 469.26C700.715 469.26 700.061 469.133 699.461 468.88C698.861 468.613 698.341 468.24 697.901 467.76C697.475 467.28 697.141 466.707 696.901 466.04C696.661 465.373 696.541 464.627 696.541 463.8C696.541 462.987 696.661 462.247 696.901 461.58C697.141 460.9 697.475 460.32 697.901 459.84C698.341 459.36 698.861 458.993 699.461 458.74C700.061 458.473 700.715 458.34 701.421 458.34C702.128 458.34 702.781 458.473 703.381 458.74C703.981 458.993 704.495 459.36 704.921 459.84C705.361 460.32 705.701 460.9 705.941 461.58C706.181 462.247 706.301 462.987 706.301 463.8ZM704.361 463.8C704.361 462.627 704.095 461.7 703.561 461.02C703.041 460.327 702.328 459.98 701.421 459.98C700.515 459.98 699.795 460.327 699.261 461.02C698.741 461.7 698.481 462.627 698.481 463.8C698.481 464.973 698.741 465.907 699.261 466.6C699.795 467.28 700.515 467.62 701.421 467.62C702.328 467.62 703.041 467.28 703.561 466.6C704.095 465.907 704.361 464.973 704.361 463.8ZM711.338 467.66C712.098 467.66 712.658 467.56 713.018 467.36C713.391 467.16 713.578 466.84 713.578 466.4C713.578 465.947 713.398 465.587 713.038 465.32C712.678 465.053 712.085 464.753 711.258 464.42C710.858 464.26 710.471 464.1 710.098 463.94C709.738 463.767 709.425 463.567 709.158 463.34C708.891 463.113 708.678 462.84 708.518 462.52C708.358 462.2 708.278 461.807 708.278 461.34C708.278 460.42 708.618 459.693 709.298 459.16C709.978 458.613 710.905 458.34 712.078 458.34C712.371 458.34 712.665 458.36 712.958 458.4C713.251 458.427 713.525 458.467 713.778 458.52C714.031 458.56 714.251 458.607 714.438 458.66C714.638 458.713 714.791 458.76 714.898 458.8L714.558 460.4C714.358 460.293 714.045 460.187 713.618 460.08C713.191 459.96 712.678 459.9 712.078 459.9C711.558 459.9 711.105 460.007 710.718 460.22C710.331 460.42 710.138 460.74 710.138 461.18C710.138 461.407 710.178 461.607 710.258 461.78C710.351 461.953 710.485 462.113 710.658 462.26C710.845 462.393 711.071 462.52 711.338 462.64C711.605 462.76 711.925 462.887 712.298 463.02C712.791 463.207 713.231 463.393 713.618 463.58C714.005 463.753 714.331 463.96 714.598 464.2C714.878 464.44 715.091 464.733 715.238 465.08C715.385 465.413 715.458 465.827 715.458 466.32C715.458 467.28 715.098 468.007 714.378 468.5C713.671 468.993 712.658 469.24 711.338 469.24C710.418 469.24 709.698 469.16 709.178 469C708.658 468.853 708.305 468.74 708.118 468.66L708.458 467.06C708.671 467.14 709.011 467.26 709.478 467.42C709.945 467.58 710.565 467.66 711.338 467.66ZM721.364 467.66C721.804 467.66 722.191 467.653 722.524 467.64C722.871 467.613 723.157 467.573 723.384 467.52V464.42C723.251 464.353 723.031 464.3 722.724 464.26C722.431 464.207 722.071 464.18 721.644 464.18C721.364 464.18 721.064 464.2 720.744 464.24C720.437 464.28 720.151 464.367 719.884 464.5C719.631 464.62 719.417 464.793 719.244 465.02C719.071 465.233 718.984 465.52 718.984 465.88C718.984 466.547 719.197 467.013 719.624 467.28C720.051 467.533 720.631 467.66 721.364 467.66ZM721.204 458.34C721.951 458.34 722.577 458.44 723.084 458.64C723.604 458.827 724.017 459.1 724.324 459.46C724.644 459.807 724.871 460.227 725.004 460.72C725.137 461.2 725.204 461.733 725.204 462.32V468.82C725.044 468.847 724.817 468.887 724.524 468.94C724.244 468.98 723.924 469.02 723.564 469.06C723.204 469.1 722.811 469.133 722.384 469.16C721.971 469.2 721.557 469.22 721.144 469.22C720.557 469.22 720.017 469.16 719.524 469.04C719.031 468.92 718.604 468.733 718.244 468.48C717.884 468.213 717.604 467.867 717.404 467.44C717.204 467.013 717.104 466.5 717.104 465.9C717.104 465.327 717.217 464.833 717.444 464.42C717.684 464.007 718.004 463.673 718.404 463.42C718.804 463.167 719.271 462.98 719.804 462.86C720.337 462.74 720.897 462.68 721.484 462.68C721.671 462.68 721.864 462.693 722.064 462.72C722.264 462.733 722.451 462.76 722.624 462.8C722.811 462.827 722.971 462.853 723.104 462.88C723.237 462.907 723.331 462.927 723.384 462.94V462.42C723.384 462.113 723.351 461.813 723.284 461.52C723.217 461.213 723.097 460.947 722.924 460.72C722.751 460.48 722.511 460.293 722.204 460.16C721.911 460.013 721.524 459.94 721.044 459.94C720.431 459.94 719.891 459.987 719.424 460.08C718.971 460.16 718.631 460.247 718.404 460.34L718.184 458.8C718.424 458.693 718.824 458.593 719.384 458.5C719.944 458.393 720.551 458.34 721.204 458.34Z" fill="black"/>
</g>
</g>
</svg>
